<?xml version="1.0" encoding="utf-8"?>
<!-- Generator: Adobe Illustrator 17.1.0, SVG Export Plug-In . SVG Version: 6.00 Build 0)  -->
<!DOCTYPE svg PUBLIC "-//W3C//DTD SVG 1.1//EN" "http://www.w3.org/Graphics/SVG/1.1/DTD/svg11.dtd">
<svg version="1.1" id="Layer_1" xmlns="http://www.w3.org/2000/svg" xmlns:xlink="http://www.w3.org/1999/xlink" x="0px" y="0px"
	 viewBox="0 0 60 60" enable-background="new 0 0 60 60" xml:space="preserve">
<circle fill="#9FC821" cx="30" cy="30" r="30"/>
<g>
	<g>
		<g>
			<path fill="#EAEAEA" d="M48,46c-0.1,0-0.2,0-0.3,0c-0.5-0.8-1.3-1.4-2.3-1.4S43.5,45.2,43,46c-0.1,0-0.2,0-0.3,0
				c-1.1,0-2,0.9-2,2c0,0.2,0,0.5,0.1,0.7H38v-4h3.3c0.4,0,0.7-0.3,0.7-0.7V17.3c0-0.4-0.3-0.7-0.7-0.7h-20c-0.4,0-0.7,0.3-0.7,0.7
				v32c0,0.4,0.3,0.7,0.7,0.7H48c1.1,0,2-0.9,2-2C50,46.9,49.1,46,48,46z M38,18h2.7v4H38V18z M38,23.3h2.7v4H38V23.3z M38,28.7h2.7
				v4H38V28.7z M38,34h2.7v4H38V34z M38,39.3h2.7v4H38V39.3z M24.7,48.7H22v-4h2.7V48.7z M24.7,43.3H22v-4h2.7V43.3z M24.7,38H22v-4
				h2.7V38z M24.7,32.7H22v-4h2.7V32.7z M24.7,27.3H22v-4h2.7V27.3z M24.7,22H22v-4h2.7V22z M28.7,48.7H26v-4h2.7V48.7z M28.7,43.3
				H26v-4h2.7V43.3z M28.7,38H26v-4h2.7V38z M28.7,32.7H26v-4h2.7V32.7z M28.7,27.3H26v-4h2.7V27.3z M28.7,22H26v-4h2.7V22z
				 M32.7,48.7H30v-4h2.7V48.7z M32.7,43.3H30v-4h2.7V43.3z M32.7,38H30v-4h2.7V38z M32.7,32.7H30v-4h2.7V32.7z M32.7,27.3H30v-4
				h2.7V27.3z M32.7,22H30v-4h2.7V22z M36.7,48.7H34v-4h2.7V48.7z M36.7,43.3H34v-4h2.7V43.3z M36.7,38H34v-4h2.7V38z M36.7,32.7H34
				v-4h2.7V32.7z M36.7,27.3H34v-4h2.7V27.3z M36.7,22H34v-4h2.7V22z M48,48.7h-5.3c-0.4,0-0.7-0.3-0.7-0.7c0-0.4,0.3-0.7,0.7-0.7
				c0.1,0,0.2,0,0.4,0.1c0.2,0.1,0.4,0.1,0.6,0.1c0.2-0.1,0.4-0.3,0.4-0.5c0.1-0.6,0.7-1,1.3-1s1.2,0.4,1.3,1c0,0.2,0.2,0.4,0.4,0.5
				c0.2,0.1,0.4,0.1,0.6-0.1c0.4-0.3,1,0.1,1,0.6C48.7,48.4,48.4,48.7,48,48.7z"/>
			<path fill="#EAEAEA" d="M24.7,14.7v-2h4.7c0.4,0,0.7-0.3,0.7-0.7v-0.7h2.7V12c0,0.4,0.3,0.7,0.7,0.7H38V14H26.7
				c-0.4,0-0.7,0.3-0.7,0.7s0.3,0.7,0.7,0.7h16.7V43c0,0.4,0.3,0.7,0.7,0.7c0.4,0,0.7-0.3,0.7-0.7V14.7c0-0.4-0.3-0.7-0.7-0.7h-4.7
				v-2c0-0.4-0.3-0.7-0.7-0.7H34v-0.7c0-0.4-0.3-0.7-0.7-0.7h-4c-0.4,0-0.7,0.3-0.7,0.7v0.7H24c-0.4,0-0.7,0.3-0.7,0.7v2h-4.7
				c-0.4,0-0.7,0.3-0.7,0.7v34h-4v-2.7c1.5-0.3,2.7-1.7,2.7-3.3c0-0.1,0-8.7-3.3-8.7C10,34,10,42.6,10,42.7c0,1.6,1.1,3,2.7,3.3v2.7
				h-2c-0.4,0-0.7,0.3-0.7,0.7c0,0.4,0.3,0.7,0.7,0.7h8c0.4,0,0.7-0.3,0.7-0.7v-34H24C24.4,15.3,24.7,15,24.7,14.7z M11.3,42.7
				c0-3.3,0.9-7.3,2-7.3s2,4,2,7.3c0,1.1-0.9,2-2,2S11.3,43.8,11.3,42.7z"/>
		</g>
	</g>
</g>
</svg>
