<?xml version="1.0" encoding="utf-8"?>
<!-- Generator: Adobe Illustrator 17.1.0, SVG Export Plug-In . SVG Version: 6.00 Build 0)  -->
<!DOCTYPE svg PUBLIC "-//W3C//DTD SVG 1.1//EN" "http://www.w3.org/Graphics/SVG/1.1/DTD/svg11.dtd">
<svg version="1.1" id="Layer_1" xmlns="http://www.w3.org/2000/svg" xmlns:xlink="http://www.w3.org/1999/xlink" x="0px" y="0px"
	 viewBox="0 0 320 320" enable-background="new 0 0 320 320" xml:space="preserve">
<circle fill="#F8B13F" cx="160" cy="160" r="160"/>
<g>
	<path fill="#EAEAEA" d="M218.1,283c-15-5.3-29.8-10.8-44.9-15.9c-34.8-11.8-69.7-23.4-104.6-35.1c-8.6-2.9-10.8-7-8.2-15.6
		c0.4-1.4,1.1-2.7,1.6-4.1c2.3-6.6,6.5-8.9,13.3-6.6c20.5,6.8,41,13.8,61.5,20.7c0.9,0.3,1.8,0.5,1.9,0.5c2.7-7.8,5.2-15.4,7.9-22.8
		c2-5.4,1-7.6-4.7-9c-14.3-3.7-25.2-14.9-28-29.9c-1.7-9.3,1-17.4,3.6-25.8c0.2-0.6,0.4-1.2,0.6-1.8c0-0.1,0-0.3-0.1-1.2
		c-16.5-5.5-33.2-11.1-50.5-16.9c-0.5,1.4-0.7,3.3-1.7,4.2c-1.8,1.5-4.2,3.4-6.1,3.1c-1.5-0.3-3.8-4-3.4-5.4
		c1.9-5.2-0.8-6.3-4.8-7.2c-1.6-0.3-3-1.3-4.5-1.9c0-2,0-4,0-6c4.7-4.5,9.1,0.1,12,0.4c2.8-2.3,4.5-4.5,6.7-5.2
		c3.9-1.2,6.1,0.9,5.2,5.1c-0.7,3.3,0.7,4.2,3.7,5.1c15.6,5,31.2,10.4,47,15.7c2.8-8.1,5.9-16,8.3-24.1
		c3.1-10.5,11.7-16.4,21.3-14.8c6.3,1.1,13,2.8,18.2,6.2c7.9,5,10.3,13.5,6.9,23.9c-0.8,2.6-1.6,5.3-2.5,8.1
		c7.6,2.6,14.9,5.5,22.4,7.5c8.2,2.2,12.6,10,9.6,18.7c-2.1,6-10.4,9.1-18.1,6.7c-10.1-3.2-20.1-6.6-30.7-10
		c-1.2,3.3-2.4,6.7-3.7,10.4c5.3,2,10.6,4.2,15.9,5.9c13.5,4.4,17.3,18.5,13.7,29.4c-4.1,12.4-8.5,24.6-12.8,36.9
		c-0.5,1.5-1.3,2.9-2.1,4.9c1.3,0.5,2.6,1.1,3.9,1.6c17.1,5.9,34.1,11.9,51.3,17.5c3.2,1.1,6.9,1.2,10.3,1.1
		c4.9-0.3,9.1,0.3,11.7,5.1c0,2.7,0,5.3,0,8c-2.7,6.5-7.6,10.5-14,13C226.8,283,222.5,283,218.1,283z M128.5,139.2
		c-0.9,2.9-1.5,5.6-2.5,8.2c-7,17.1,4.6,35.1,20.3,37.8c9.8,1.7,14,10.4,10.8,19.9c-2,5.9-3.9,11.7-6.2,17.5
		c-1.6,4.1-0.8,7.6,3.1,9.1c3.9,1.5,6.9-0.8,8.3-4.8c0.3-0.9,0.7-1.8,1-2.7c3.6-10.5,7.1-21,10.6-31.4c3.2-9.4,0.2-15.5-9.3-18.7
		c-5.5-1.9-11.1-3.7-16.6-5.6c-5-1.7-5.8-3.3-4.2-8.5c1.4-4.5,2.9-8.9,4.5-13.9C141.7,143.7,135.2,141.5,128.5,139.2z M234.7,267.4
		c-4-0.5-8.3-0.4-12-1.7c-38-12.7-75.9-25.5-113.9-38.4c-12.3-4.2-24.6-8.4-37.1-12.6c-0.9,2.6-1.6,4.7-2.2,6.8
		c4.8,1.8,9.6,3.9,14.5,5.5c45.2,15.1,90.5,30.2,135.7,45.3C226.8,274.6,230.3,273.3,234.7,267.4z M142.5,133.9
		c1.6-5.1,2.8-10.3,4.9-15c0.8-1.8,4.2-4,5.8-3.6c2.7,0.7,5,3,3.3,6.9c-1.5,3.6-2.2,7.5-3.4,11.2c-0.8,2.6,0,3.8,2.6,4.6
		c5.8,1.7,11.5,3.5,17.2,5.4c6.2,2,12.3,4.5,18.6,6.1c1.9,0.5,4.3-1.2,6.4-1.9c-1.1-1.6-2.2-3.3-3.4-4.7c-0.5-0.5-1.5-0.6-2.2-0.9
		c-8-2.7-16.1-5.3-24.1-8c-4.8-1.7-5.7-3.6-4.1-8.6c1.2-3.7,2.4-7.4,3.5-11.2c1.3-4.4,1.4-8.7-2.5-11.7c-9.4-7.3-21.9-9-26.4,5.7
		c-2.3,7.4-4.5,14.8-6.8,22.3C135.8,131.7,139.2,132.9,142.5,133.9z"/>
	<path fill="#EAEAEA" d="M180.1,37c3.5,2.3,7.2,4.3,10.3,7c7.8,6.8,9.2,16.1,7.2,25.4c-2.1,10-9,17-19,19.2
		c-17.3,3.8-32.4-7.6-32.8-24.7c-0.3-13.7,6.9-21.4,18.1-26.8C169.5,37,174.8,37,180.1,37z M172,46c-10,1.3-16.2,7.2-16.8,17.2
		c-0.5,8.2,8.4,16.6,16.7,16.8c8,0.2,17.2-8.8,17.2-17C189.1,54.6,180.4,45.9,172,46z"/>
</g>
</svg>
