<?xml version="1.0" standalone="no"?>
<!DOCTYPE svg PUBLIC "-//W3C//DTD SVG 20010904//EN"
 "http://www.w3.org/TR/2001/REC-SVG-20010904/DTD/svg10.dtd">
<svg version="1.0" xmlns="http://www.w3.org/2000/svg"
 width="256.000000pt" height="256.000000pt" viewBox="0 0 256.000000 256.000000"
 preserveAspectRatio="xMidYMid meet">
<metadata>
Created by potrace 1.11, written by Peter Selinger 2001-2013
</metadata>
<g transform="translate(0.000000,256.000000) scale(0.100000,-0.100000)"
fill="#000000" stroke="none">
<path d="M2060 2459 c-156 -14 -337 -52 -500 -105 -83 -27 -82 -27 -192 -78
-43 -20 -80 -36 -82 -36 -10 0 -206 -117 -266 -159 -69 -47 -163 -121 -214
-166 -6 -5 -27 -24 -46 -40 -41 -35 -189 -199 -240 -265 -19 -25 -37 -47 -40
-50 -10 -9 -96 -143 -125 -195 -72 -130 -85 -156 -120 -240 -67 -162 -124
-371 -145 -530 -15 -112 -9 -156 9 -60 39 219 92 379 187 568 100 200 186 329
329 493 99 115 240 249 298 283 21 13 43 28 50 35 6 6 23 20 37 29 13 9 19 17
13 17 -6 0 -31 -15 -55 -33 -24 -18 -54 -40 -68 -49 -14 -8 -50 -39 -80 -68
-30 -29 -75 -69 -99 -89 -25 -20 -59 -51 -76 -68 -18 -18 -37 -33 -42 -33 -6
0 -14 -7 -17 -16 -3 -8 -10 -13 -16 -9 -9 6 9 33 43 64 9 8 17 21 17 29 0 7 5
10 10 7 6 -3 10 0 10 7 0 36 261 288 298 288 7 0 12 4 12 9 0 11 98 71 116 71
9 0 12 5 8 11 -4 7 -1 10 7 7 8 -3 22 -1 31 3 10 6 27 5 42 -3 l26 -11 -34
-24 c-19 -12 -38 -23 -41 -23 -4 0 -21 -11 -39 -25 -18 -14 -36 -22 -39 -18
-4 3 -7 1 -7 -5 0 -18 17 -14 63 15 120 76 374 186 533 233 162 46 440 90 577
90 l58 0 -3 73 -3 72 -45 1 c-25 1 -88 -2 -140 -7z m-850 -323 c0 -3 -4 -8
-10 -11 -5 -3 -10 -1 -10 4 0 6 5 11 10 11 6 0 10 -2 10 -4z m-24 -32 l29 -16
-30 7 c-16 3 -34 11 -39 16 -16 15 9 11 40 -7z"/>
<path d="M1735 2115 c-49 -7 -128 -22 -175 -34 -119 -31 -361 -134 -347 -147
6 -6 67 20 67 28 0 4 13 8 29 8 17 0 32 4 35 8 9 15 116 36 127 25 7 -7 0 -14
-23 -23 -70 -27 -120 -51 -115 -57 4 -3 24 1 45 10 115 46 321 86 467 90 l80
2 0 50 0 50 -50 2 c-27 1 -90 -4 -140 -12z m-215 -99 c0 -2 -7 -6 -15 -10 -8
-3 -15 -1 -15 4 0 6 7 10 15 10 8 0 15 -2 15 -4z"/>
<path d="M1563 1813 c-39 -3 -56 -9 -63 -22 -9 -18 -5 -19 63 -17 64 1 72 3
72 20 0 22 -3 23 -72 19z"/>
<path d="M749 1563 c-13 -16 -12 -17 4 -4 9 7 17 15 17 17 0 8 -8 3 -21 -13z"/>
<path d="M649 1433 c-129 -190 -216 -411 -244 -618 -10 -75 3 -50 29 57 13 52
34 123 46 159 27 77 108 241 124 251 6 4 7 8 3 8 -9 0 100 161 117 173 8 5 7
10 -3 16 -10 7 -11 13 -2 30 7 11 8 21 4 21 -5 0 -38 -44 -74 -97z m61 37 c0
-5 -4 -10 -10 -10 -5 0 -10 5 -10 10 0 6 5 10 10 10 6 0 10 -4 10 -10z"/>
<path d="M2131 1400 c51 -63 65 -95 84 -185 9 -44 20 -81 26 -83 16 -6 10 -20
-8 -18 -22 1 -30 -39 -13 -60 9 -10 9 -14 1 -14 -8 0 -8 -5 -2 -17 36 -65 44
-96 32 -115 -10 -17 -10 -22 0 -28 16 -10 18 -71 2 -77 -7 -3 -10 -20 -8 -44
2 -21 -1 -41 -6 -44 -5 -4 -9 -13 -9 -21 0 -8 4 -12 10 -9 14 9 50 -13 50 -31
0 -8 -4 -13 -9 -10 -10 7 -46 -62 -57 -109 -4 -16 -15 -38 -25 -48 -11 -10
-19 -22 -19 -28 0 -5 -13 -22 -28 -37 -16 -15 -31 -36 -35 -46 -6 -16 -10 -16
-24 -5 -14 12 -15 11 -9 -7 5 -18 0 -25 -29 -38 -19 -9 -39 -26 -45 -36 -6
-11 -19 -20 -29 -20 -10 0 -36 -12 -57 -26 -21 -14 -48 -27 -61 -29 -12 -1
-30 -8 -38 -15 -8 -7 -41 -14 -71 -15 -31 -2 -59 -7 -63 -11 -3 -5 -34 -9 -69
-9 -52 0 -62 3 -62 17 0 22 -15 30 -58 34 -20 2 -39 9 -43 15 -4 6 -11 9 -17
5 -6 -3 -17 1 -25 9 -9 8 -25 15 -36 15 -12 0 -21 5 -21 11 0 6 -8 8 -17 5
-20 -6 -104 65 -116 98 -6 15 -10 16 -22 6 -12 -10 -15 -9 -15 9 0 14 -6 21
-19 21 -25 0 -38 20 -20 31 7 4 10 11 6 16 -5 4 -12 1 -17 -7 -5 -8 -10 -12
-12 -10 -2 3 -13 19 -26 37 -12 18 -22 39 -22 46 0 8 -7 20 -15 27 -8 7 -15
19 -15 28 0 12 -5 11 -22 -6 l-23 -21 -19 40 c-11 21 -23 39 -27 39 -4 0 -13
16 -20 34 -7 19 -16 33 -21 30 -4 -3 -7 5 -7 18 1 13 -6 48 -14 78 -11 41 -12
57 -4 62 7 4 16 3 21 -2 13 -13 26 -13 26 0 0 6 -10 15 -22 20 -13 5 -16 9 -8
9 9 1 11 4 4 11 -13 13 -7 144 7 148 5 2 6 14 3 27 -3 12 -1 26 5 29 6 4 11
15 11 24 0 10 12 39 26 66 34 63 24 70 -13 9 -68 -111 -93 -221 -89 -398 4
-186 42 -292 158 -442 100 -129 277 -237 445 -272 99 -21 309 -10 404 21 231
77 415 259 498 493 22 61 26 89 28 215 2 145 -6 202 -41 297 -39 107 -150 259
-231 316 -30 21 -30 21 6 -23z m-1041 -970 c0 -5 -4 -10 -10 -10 -5 0 -10 5
-10 10 0 6 5 10 10 10 6 0 10 -4 10 -10z m17 -62 c-3 -8 -6 -5 -6 6 -1 11 2
17 5 13 3 -3 4 -12 1 -19z m108 -35 c17 7 30 -9 15 -18 -6 -4 -7 -11 -4 -17 5
-7 2 -8 -7 -3 -25 14 -49 38 -49 48 0 5 7 4 15 -3 8 -7 21 -10 30 -7z"/>
<path d="M839 1378 c-37 -51 -106 -190 -114 -233 -6 -31 -1 -22 61 110 13 28
39 74 59 104 43 65 39 80 -6 19z"/>
</g>
</svg>
